<svg width="30" height="30" viewBox="0 0 30 30" fill="none" xmlns="http://www.w3.org/2000/svg">
<path d="M11.6 6.65614H11.6V6.66348V9.03848C11.6 10.1326 11.3145 10.705 11.0093 11.0102C10.704 11.3154 10.1316 11.601 9.0375 11.601H6.6625C5.56837 11.601 4.99595 11.3154 4.69075 11.0102C4.38554 10.705 4.1 10.1326 4.1 9.03848V6.66348C4.1 5.56936 4.38549 4.99785 4.69105 4.69298C4.99718 4.38753 5.57275 4.10098 6.675 4.10098H9.05C10.1447 4.10098 10.7159 4.38678 11.0189 4.69046C11.3213 4.99349 11.605 5.56337 11.6 6.65614Z" fill="white" stroke="#3354F4" stroke-width="3.2"/>
<path d="M20.9623 4.10098H23.3373C24.4314 4.10098 25.0039 4.38652 25.3091 4.69172C25.6143 4.99693 25.8998 5.56935 25.8998 6.66348V9.03848C25.8998 10.1326 25.6143 10.705 25.3091 11.0102C25.0039 11.3154 24.4314 11.601 23.3373 11.601H20.9623C19.8682 11.601 19.2958 11.3154 18.9906 11.0102C18.6853 10.705 18.3998 10.1326 18.3998 9.03848V6.66348C18.3998 5.56935 18.6853 4.99693 18.9906 4.69172C19.2958 4.38652 19.8682 4.10098 20.9623 4.10098Z" fill="white" stroke="#3354F4" stroke-width="3.2"/>
<path d="M20.9623 18.3871H23.3373C24.4314 18.3871 25.0039 18.6727 25.3091 18.9779C25.6143 19.2831 25.8998 19.8555 25.8998 20.9496V23.3246C25.8998 24.4187 25.6143 24.9912 25.3091 25.2964C25.0039 25.6016 24.4314 25.8871 23.3373 25.8871H20.9623C19.8682 25.8871 19.2958 25.6016 18.9906 25.2964C18.6853 24.9912 18.3998 24.4187 18.3998 23.3246V20.9496C18.3998 19.8555 18.6853 19.2831 18.9906 18.9779C19.2958 18.6727 19.8682 18.3871 20.9623 18.3871Z" fill="white" stroke="#3354F4" stroke-width="3.2"/>
<path d="M11.6 20.9548H11.6V20.9621V23.3371C11.6 24.4312 11.3145 25.0037 11.0093 25.3089C10.704 25.6141 10.1316 25.8996 9.0375 25.8996H6.6625C5.56839 25.8996 4.99688 25.6141 4.69201 25.3086C4.38655 25.0024 4.1 24.4269 4.1 23.3246V20.9496C4.1 19.8555 4.38549 19.284 4.69105 18.9791C4.99718 18.6737 5.57275 18.3871 6.675 18.3871H9.05C10.1447 18.3871 10.715 18.6729 11.0177 18.9769C11.3203 19.2809 11.605 19.8539 11.6 20.9548Z" fill="white" stroke="#3354F4" stroke-width="3.2"/>
</svg>
