<svg width="28" height="28" viewBox="0 0 28 28" fill="none" xmlns="http://www.w3.org/2000/svg">
<path d="M17.5003 15.1668H19.2503V18.4568L22.097 20.1018L21.222 21.6185L17.5003 19.4718V15.1668ZM21.152 10.8852C20.102 7.94516 17.302 5.8335 14.0003 5.8335C10.8503 5.8335 8.16699 7.7585 7.00033 10.5002C3.78033 10.5002 1.16699 13.1135 1.16699 16.3335C1.16699 19.5535 3.78033 22.1668 7.00033 22.1668H11.2937C12.612 24.9202 15.412 26.8335 18.667 26.8335C23.182 26.8335 26.8337 23.1818 26.8337 18.6668C26.8337 15.0268 24.4537 11.9468 21.152 10.8852ZM7.00033 19.8335C5.06366 19.8335 3.50033 18.2702 3.50033 16.3335C3.50033 14.3968 5.06366 12.8335 7.00033 12.8335C7.43199 12.8335 7.85199 12.9152 8.23699 13.0552C8.46217 11.6894 9.16532 10.448 10.221 9.55263C11.2766 8.65724 12.6161 8.1661 14.0003 8.16683C15.902 8.16683 17.582 9.0885 18.667 10.5002C14.1403 10.5002 10.5003 14.1635 10.5003 18.6668C10.5003 19.0635 10.5353 19.4485 10.5937 19.8335H7.00033ZM18.667 24.5002C15.447 24.5002 12.8337 21.8868 12.8337 18.6668C12.8337 15.4468 15.447 12.8335 18.667 12.8335C21.887 12.8335 24.5003 15.4468 24.5003 18.6668C24.5003 21.8868 21.887 24.5002 18.667 24.5002Z" fill="#0043FF"/>
</svg>
